<svg width="58" height="55" viewBox="0 0 58 55" fill="none" xmlns="http://www.w3.org/2000/svg">
<rect width="58" height="55" fill="#1E1E1E"/>
<g id="Group 424">
<g id="Group 423">
<rect id="Rectangle 48" width="58" height="55" rx="8" fill="white"/>
<g id="Group 31">
<g id="R0">
<path d="M6.33878 41V14.0909H16.9553C18.9875 14.0909 20.7218 14.4544 22.1584 15.1815C23.6037 15.8997 24.703 16.9202 25.4563 18.2429C26.2184 19.5568 26.5994 21.1029 26.5994 22.881C26.5994 24.668 26.214 26.2053 25.4432 27.4929C24.6724 28.7718 23.5555 29.7528 22.0927 30.4361C20.6386 31.1193 18.878 31.4609 16.8107 31.4609H9.70242V26.8885H15.891C16.9772 26.8885 17.8794 26.7396 18.5977 26.4418C19.3159 26.1439 19.8503 25.6972 20.2006 25.1016C20.5598 24.5059 20.7393 23.7657 20.7393 22.881C20.7393 21.9876 20.5598 21.2343 20.2006 20.6211C19.8503 20.0079 19.3116 19.5437 18.5845 19.2283C17.8662 18.9042 16.9596 18.7422 15.8647 18.7422H12.0281V41H6.33878ZM20.8707 28.7543L27.5586 41H21.2781L14.7347 28.7543H20.8707Z" fill="black"/>
<path d="M41.0131 41.5913C38.7532 41.5825 36.8086 41.0263 35.1793 39.9226C33.5588 38.8189 32.3106 37.2203 31.4347 35.1268C30.5675 33.0333 30.1383 30.5149 30.147 27.5717C30.147 24.6373 30.5806 22.1365 31.4478 20.0692C32.3237 18.002 33.572 16.4297 35.1925 15.3523C36.8217 14.2661 38.762 13.723 41.0131 13.723C43.2643 13.723 45.2002 14.2661 46.8207 15.3523C48.4499 16.4384 49.7025 18.0152 50.5785 20.0824C51.4544 22.1409 51.888 24.6373 51.8793 27.5717C51.8793 30.5237 51.4413 33.0464 50.5653 35.1399C49.6982 37.2334 48.4543 38.832 46.8338 39.9357C45.2133 41.0394 43.2731 41.5913 41.0131 41.5913ZM41.0131 36.8743C42.5548 36.8743 43.7855 36.0991 44.7053 34.5487C45.625 32.9982 46.0805 30.6726 46.0717 27.5717C46.0717 25.5308 45.8615 23.8314 45.4411 22.4737C45.0294 21.116 44.4425 20.0955 43.6804 19.4123C42.9271 18.729 42.038 18.3874 41.0131 18.3874C39.4802 18.3874 38.2539 19.1539 37.3342 20.6868C36.4144 22.2197 35.9502 24.5147 35.9414 27.5717C35.9414 29.639 36.1473 31.3646 36.5589 32.7486C36.9794 34.1238 37.5707 35.1574 38.3327 35.8494C39.0948 36.5327 39.9883 36.8743 41.0131 36.8743Z" fill="#06B5AE"/>
</g>
</g>
</g>
</g>
</svg>
