<svg width="89" height="89" viewBox="0 0 89 89" fill="none" xmlns="http://www.w3.org/2000/svg">
<rect width="89" height="89" rx="12" fill="white"/>
<path d="M15.3906 42V26H21.7031C22.9115 26 23.9427 26.2161 24.7969 26.6484C25.6563 27.0755 26.3099 27.6823 26.7578 28.4688C27.2109 29.25 27.4375 30.1693 27.4375 31.2266C27.4375 32.2891 27.2083 33.2031 26.75 33.9687C26.2917 34.7292 25.6276 35.3125 24.7578 35.7187C23.8932 36.125 22.8464 36.3281 21.6172 36.3281H17.3906V33.6094H21.0703C21.7161 33.6094 22.2526 33.5208 22.6797 33.3438C23.1068 33.1667 23.4245 32.901 23.6328 32.5469C23.8464 32.1927 23.9531 31.7526 23.9531 31.2266C23.9531 30.6953 23.8464 30.2474 23.6328 29.8828C23.4245 29.5182 23.1042 29.2422 22.6719 29.0547C22.2448 28.862 21.7057 28.7656 21.0547 28.7656H18.7734V42H15.3906ZM24.0313 34.7188L28.0078 42H24.2734L20.3828 34.7188H24.0313ZM33.1875 42.2266C32.4219 42.2266 31.7396 42.0938 31.1406 41.8281C30.5417 41.5573 30.0677 41.1589 29.7188 40.6328C29.375 40.1016 29.2031 39.4401 29.2031 38.6484C29.2031 37.9818 29.3255 37.4219 29.5703 36.9687C29.8151 36.5156 30.1484 36.151 30.5703 35.875C30.9922 35.599 31.4714 35.3906 32.0078 35.25C32.5495 35.1094 33.1172 35.0104 33.7109 34.9531C34.4089 34.8802 34.9714 34.8125 35.3984 34.75C35.8255 34.6823 36.1354 34.5833 36.3281 34.4531C36.5208 34.3229 36.6172 34.1302 36.6172 33.875V33.8281C36.6172 33.3333 36.4609 32.9505 36.1484 32.6797C35.8411 32.4089 35.4036 32.2734 34.8359 32.2734C34.237 32.2734 33.7604 32.4062 33.4063 32.6719C33.0521 32.9323 32.8177 33.2604 32.7031 33.6562L29.625 33.4062C29.7813 32.6771 30.0885 32.0469 30.5469 31.5156C31.0052 30.9792 31.5964 30.5677 32.3203 30.2812C33.0495 29.9896 33.8932 29.8438 34.8516 29.8438C35.5182 29.8438 36.1563 29.9219 36.7656 30.0781C37.3802 30.2344 37.9245 30.4766 38.3984 30.8047C38.8776 31.1328 39.2552 31.5547 39.5313 32.0703C39.8073 32.5807 39.9453 33.1927 39.9453 33.9062V42H36.7891V40.3359H36.6953C36.5026 40.7109 36.2448 41.0417 35.9219 41.3281C35.599 41.6094 35.2109 41.8307 34.7578 41.9922C34.3047 42.1484 33.7813 42.2266 33.1875 42.2266ZM34.1406 39.9297C34.6302 39.9297 35.0625 39.8333 35.4375 39.6406C35.8125 39.4427 36.1068 39.1771 36.3203 38.8438C36.5339 38.5104 36.6406 38.1328 36.6406 37.7109V36.4375C36.5365 36.5052 36.3932 36.5677 36.2109 36.625C36.0339 36.6771 35.8333 36.7266 35.6094 36.7734C35.3854 36.8151 35.1615 36.8542 34.9375 36.8906C34.7135 36.9219 34.5104 36.9505 34.3281 36.9766C33.9375 37.0339 33.5964 37.125 33.3047 37.25C33.013 37.375 32.7865 37.5443 32.625 37.7578C32.4635 37.9661 32.3828 38.2266 32.3828 38.5391C32.3828 38.9922 32.5469 39.3385 32.875 39.5781C33.2083 39.8125 33.6302 39.9297 34.1406 39.9297ZM46.9492 42.1953C46.0378 42.1953 45.2122 41.9609 44.4727 41.4922C43.7383 41.0182 43.1549 40.3229 42.7227 39.4062C42.2956 38.4844 42.082 37.3542 42.082 36.0156C42.082 34.6406 42.3034 33.4974 42.7461 32.5859C43.1888 31.6693 43.7773 30.9844 44.5117 30.5313C45.2513 30.0729 46.0612 29.8438 46.9414 29.8438C47.6133 29.8438 48.1732 29.9583 48.6211 30.1875C49.0742 30.4115 49.4388 30.6927 49.7148 31.0312C49.9961 31.3646 50.2096 31.6927 50.3555 32.0156H50.457V26H53.7773V42H50.4961V40.0781H50.3555C50.1992 40.4115 49.9779 40.7422 49.6914 41.0703C49.4102 41.3932 49.043 41.6615 48.5898 41.875C48.1419 42.0885 47.5951 42.1953 46.9492 42.1953ZM48.0039 39.5469C48.5404 39.5469 48.9935 39.401 49.3633 39.1094C49.7383 38.8125 50.0247 38.3984 50.2227 37.8672C50.4258 37.3359 50.5273 36.7135 50.5273 36C50.5273 35.2865 50.4284 34.6667 50.2305 34.1406C50.0326 33.6146 49.7461 33.2083 49.3711 32.9219C48.9961 32.6354 48.5404 32.4922 48.0039 32.4922C47.457 32.4922 46.9961 32.6406 46.6211 32.9375C46.2461 33.2344 45.9622 33.6458 45.7695 34.1719C45.5768 34.6979 45.4805 35.3073 45.4805 36C45.4805 36.6979 45.5768 37.3151 45.7695 37.8516C45.9674 38.3828 46.2513 38.7995 46.6211 39.1016C46.9961 39.3984 47.457 39.5469 48.0039 39.5469ZM56.5137 42V30H59.8418V42H56.5137ZM58.1855 28.4531C57.6908 28.4531 57.2663 28.2891 56.9121 27.9609C56.5632 27.6276 56.3887 27.2292 56.3887 26.7656C56.3887 26.3073 56.5632 25.9141 56.9121 25.5859C57.2663 25.2526 57.6908 25.0859 58.1855 25.0859C58.6803 25.0859 59.1022 25.2526 59.4512 25.5859C59.8053 25.9141 59.9824 26.3073 59.9824 26.7656C59.9824 27.2292 59.8053 27.6276 59.4512 27.9609C59.1022 28.2891 58.6803 28.4531 58.1855 28.4531ZM67.9297 42.2344C66.7161 42.2344 65.6667 41.9766 64.7813 41.4609C63.901 40.9401 63.2214 40.2161 62.7422 39.2891C62.263 38.3568 62.0234 37.276 62.0234 36.0469C62.0234 34.8073 62.263 33.724 62.7422 32.7969C63.2214 31.8646 63.901 31.1406 64.7813 30.625C65.6667 30.1042 66.7161 29.8438 67.9297 29.8438C69.1432 29.8438 70.1901 30.1042 71.0703 30.625C71.9557 31.1406 72.638 31.8646 73.1172 32.7969C73.5964 33.724 73.8359 34.8073 73.8359 36.0469C73.8359 37.276 73.5964 38.3568 73.1172 39.2891C72.638 40.2161 71.9557 40.9401 71.0703 41.4609C70.1901 41.9766 69.1432 42.2344 67.9297 42.2344ZM67.9453 39.6562C68.4974 39.6562 68.9583 39.5 69.3281 39.1875C69.6979 38.8698 69.9766 38.4375 70.1641 37.8906C70.3568 37.3437 70.4531 36.7214 70.4531 36.0234C70.4531 35.3255 70.3568 34.7031 70.1641 34.1562C69.9766 33.6094 69.6979 33.1771 69.3281 32.8594C68.9583 32.5417 68.4974 32.3828 67.9453 32.3828C67.388 32.3828 66.9193 32.5417 66.5391 32.8594C66.1641 33.1771 65.8802 33.6094 65.6875 34.1562C65.5 34.7031 65.4063 35.3255 65.4063 36.0234C65.4063 36.7214 65.5 37.3437 65.6875 37.8906C65.8802 38.4375 66.1641 38.8698 66.5391 39.1875C66.9193 39.5 67.388 39.6562 67.9453 39.6562Z" fill="black"/>
<path d="M27.8991 54.0909C27.8991 55.5978 27.6135 56.8797 27.0423 57.9368C26.4755 58.9938 25.7018 59.8013 24.7212 60.359C23.7451 60.9123 22.6476 61.1889 21.4286 61.1889C20.2006 61.1889 19.0986 60.91 18.1225 60.3523C17.1464 59.7945 16.375 58.9871 15.8082 57.93C15.2415 56.873 14.9581 55.5933 14.9581 54.0909C14.9581 52.584 15.2415 51.3021 15.8082 50.245C16.375 49.188 17.1464 48.3828 18.1225 47.8295C19.0986 47.2718 20.2006 46.9929 21.4286 46.9929C22.6476 46.9929 23.7451 47.2718 24.7212 47.8295C25.7018 48.3828 26.4755 49.188 27.0423 50.245C27.6135 51.3021 27.8991 52.584 27.8991 54.0909ZM24.9371 54.0909C24.9371 53.1148 24.791 52.2917 24.4986 51.6214C24.2107 50.9512 23.8036 50.4429 23.2773 50.0966C22.7511 49.7502 22.1348 49.5771 21.4286 49.5771C20.7224 49.5771 20.1062 49.7502 19.5799 50.0966C19.0536 50.4429 18.6443 50.9512 18.3519 51.6214C18.064 52.2917 17.9201 53.1148 17.9201 54.0909C17.9201 55.067 18.064 55.8902 18.3519 56.5604C18.6443 57.2306 19.0536 57.7389 19.5799 58.0852C20.1062 58.4316 20.7224 58.6048 21.4286 58.6048C22.1348 58.6048 22.7511 58.4316 23.2773 58.0852C23.8036 57.7389 24.2107 57.2306 24.4986 56.5604C24.791 55.8902 24.9371 55.067 24.9371 54.0909ZM32.8836 55.0085V61H30.0093V50.6364H32.7487V52.4648H32.8701C33.0995 51.8621 33.4841 51.3853 34.0239 51.0344C34.5637 50.6791 35.2181 50.5014 35.9873 50.5014C36.707 50.5014 37.3345 50.6589 37.8698 50.9737C38.405 51.2886 38.8211 51.7384 39.118 52.3232C39.4149 52.9034 39.5633 53.5961 39.5633 54.4013V61H36.689V54.9141C36.6935 54.2798 36.5316 53.785 36.2032 53.4297C35.8749 53.0698 35.4228 52.8899 34.847 52.8899C34.4602 52.8899 34.1183 52.9731 33.8215 53.1396C33.5291 53.306 33.2997 53.5489 33.1333 53.8683C32.9713 54.1831 32.8881 54.5632 32.8836 55.0085ZM44.7029 47.1818V61H41.8287V47.1818H44.7029ZM47.0054 61V50.6364H49.8797V61H47.0054ZM48.4493 49.3004C48.022 49.3004 47.6554 49.1587 47.3495 48.8754C47.0481 48.5875 46.8975 48.2434 46.8975 47.843C46.8975 47.4472 47.0481 47.1076 47.3495 46.8242C47.6554 46.5363 48.022 46.3924 48.4493 46.3924C48.8766 46.3924 49.241 46.5363 49.5423 46.8242C49.8482 47.1076 50.0012 47.4472 50.0012 47.843C50.0012 48.2434 49.8482 48.5875 49.5423 48.8754C49.241 49.1587 48.8766 49.3004 48.4493 49.3004ZM55.0565 55.0085V61H52.1822V50.6364H54.9215V52.4648H55.043C55.2724 51.8621 55.657 51.3853 56.1967 51.0344C56.7365 50.6791 57.391 50.5014 58.1602 50.5014C58.8799 50.5014 59.5073 50.6589 60.0426 50.9737C60.5779 51.2886 60.994 51.7384 61.2908 52.3232C61.5877 52.9034 61.7362 53.5961 61.7362 54.4013V61H58.8619V54.9141C58.8664 54.2798 58.7044 53.785 58.3761 53.4297C58.0477 53.0698 57.5956 52.8899 57.0199 52.8899C56.633 52.8899 56.2912 52.9731 55.9943 53.1396C55.7019 53.306 55.4725 53.5489 55.3061 53.8683C55.1442 54.1831 55.061 54.5632 55.0565 55.0085ZM68.7245 61.2024C67.6585 61.2024 66.7409 60.9865 65.9717 60.5547C65.207 60.1184 64.6177 59.5021 64.2039 58.706C63.7901 57.9053 63.5832 56.9585 63.5832 55.8654C63.5832 54.7994 63.7901 53.8638 64.2039 53.0586C64.6177 52.2534 65.2003 51.6259 65.9514 51.1761C66.7071 50.7263 67.5932 50.5014 68.6098 50.5014C69.2935 50.5014 69.93 50.6116 70.5193 50.832C71.113 51.0479 71.6303 51.3741 72.0711 51.8104C72.5164 52.2467 72.8628 52.7955 73.1102 53.4567C73.3576 54.1134 73.4813 54.8826 73.4813 55.7642V56.5536H64.7302V54.7724H70.7757C70.7757 54.3585 70.6857 53.992 70.5058 53.6726C70.3258 53.3532 70.0762 53.1036 69.7568 52.9237C69.442 52.7392 69.0754 52.647 68.657 52.647C68.2207 52.647 67.8339 52.7482 67.4965 52.9506C67.1637 53.1486 66.9028 53.4162 66.7139 53.7536C66.5249 54.0864 66.4282 54.4575 66.4237 54.8668V56.5604C66.4237 57.0732 66.5182 57.5162 66.7071 57.8896C66.9005 58.2629 67.1727 58.5508 67.5235 58.7532C67.8744 58.9556 68.2905 59.0568 68.7718 59.0568C69.0911 59.0568 69.3835 59.0118 69.6489 58.9219C69.9143 58.8319 70.1414 58.697 70.3303 58.517C70.5193 58.3371 70.6632 58.1167 70.7622 57.8558L73.4205 58.0312C73.2856 58.67 73.009 59.2277 72.5906 59.7045C72.1768 60.1768 71.6415 60.5457 70.9848 60.8111C70.3326 61.072 69.5792 61.2024 68.7245 61.2024Z" fill="#06B5AE"/>
</svg>
